<svg width="176" height="30" viewBox="0 0 176 30" fill="none" xmlns="http://www.w3.org/2000/svg">
<g clip-path="url(#clip0_161_13)">
<path d="M59.5172 0.0328369H62.2657C63.1016 0.0328369 63.9293 0.193126 64.7016 0.504553C65.4739 0.815979 66.1756 1.27244 66.7667 1.84789C67.3578 2.42333 67.8266 3.10647 68.1465 3.85833C68.4664 4.61018 68.6311 5.416 68.6311 6.2298V29.7479H65.8826C64.1944 29.7479 62.5753 29.095 61.3816 27.9328C60.1878 26.7707 59.5172 25.1945 59.5172 23.5509V0.0328369Z" fill="#E2E2E2"/>
<path d="M81.3763 10.0235C80.6475 10.0238 79.9391 10.2579 79.3606 10.6894C78.7821 11.121 78.3657 11.7261 78.1759 12.4112C78.1759 12.4957 78.1759 12.5803 78.1759 12.6664C78.1759 12.7525 78.1759 12.823 78.1759 12.9075C78.1759 13.1361 78.1759 13.3631 78.1759 13.5902C78.1759 13.7279 78.1759 13.8673 78.1759 14.0051C78.1759 14.1021 78.1759 14.1992 78.1759 14.2947C78.1759 14.5296 78.1759 14.7644 78.1759 14.9977C78.1639 15.6634 78.2123 16.3288 78.3207 16.9861C78.496 17.8879 78.882 18.6723 79.6362 19.2563C79.9877 19.53 80.4161 19.6937 80.8649 19.7261C81.4535 19.7746 82.0454 19.8043 82.634 19.8169C83.3432 19.831 84.0524 19.8169 84.7617 19.8169C84.8318 19.8122 84.9024 19.818 84.9707 19.8341C84.9893 19.8419 85.0062 19.853 85.0206 19.867C85.0447 19.8889 85.0688 19.9171 85.093 19.9406L85.0624 19.9703L85.0302 20.0032C85.0203 20.0134 85.0095 20.0228 84.9981 20.0314C84.9869 20.0393 84.9744 20.0451 84.9611 20.0486C84.8816 20.0633 84.8006 20.0686 84.7198 20.0642C83.5555 20.0799 82.3927 20.0893 81.2284 20.1159C80.865 20.1216 80.506 20.1938 80.1702 20.3288C79.6533 20.5528 79.2178 20.9233 78.9206 21.3919C78.5371 21.9575 78.311 22.6103 78.2644 23.2864C78.2547 23.4085 78.2483 23.5307 78.2403 23.6543C78.1985 24.3714 78.192 25.1057 78.1888 25.7868C78.1888 26.4413 78.1888 27.0957 78.1888 27.7517C78.1909 27.8411 78.1822 27.9304 78.1631 28.0179C78.1531 28.0426 78.1377 28.065 78.118 28.0834C78.0983 28.1018 78.0747 28.1157 78.0489 28.1244C77.9749 28.1431 77.9347 28.0805 77.9251 28.0163C77.9112 27.9198 77.9036 27.8226 77.9025 27.7251C77.9025 26.8765 77.9299 26.0279 77.9186 25.1777C77.9186 24.5421 77.88 23.9049 77.827 23.2707C77.7752 22.6072 77.554 21.9668 77.1837 21.4076C76.6899 20.6702 76.0145 20.202 75.093 20.1394C74.5365 20.1008 73.9795 20.0762 73.422 20.0658C72.724 20.0533 72.0244 20.0658 71.3313 20.0658C71.2433 20.0679 71.1556 20.0546 71.0724 20.0267C70.9791 19.9922 70.9791 19.8998 71.0724 19.8576C71.1329 19.8325 71.198 19.8197 71.2638 19.82C72.1032 19.82 72.9427 19.82 73.7822 19.8106C74.2872 19.8012 74.7938 19.773 75.2956 19.7182C76.1206 19.6259 76.7157 19.164 77.166 18.5127C77.5484 17.9437 77.7794 17.291 77.8382 16.6135C77.9272 15.6098 77.9567 14.6019 77.9267 13.5948C77.9267 13.3068 77.9267 13.0187 77.917 12.7306C77.917 12.6132 77.917 12.4942 77.917 12.3767C77.6877 11.6887 77.2392 11.0897 76.6365 10.6665C76.0339 10.2434 75.3085 10.0182 74.5655 10.0235H72.2625C71.3834 10.0235 70.5403 10.3635 69.9187 10.9687C69.2971 11.5738 68.9479 12.3946 68.9479 13.2504V23.7107C68.9293 23.8745 68.9196 24.0391 68.9189 24.2039V25.3171C68.9196 25.4819 68.9293 25.6465 68.9479 25.8103V26.5274C68.9487 27.3826 69.2983 28.2026 69.9198 28.8071C70.5414 29.4116 71.3839 29.7511 72.2625 29.7511H87.1467V26.9438C87.1661 26.8053 87.1758 26.6656 87.1756 26.5258V10.0235H81.3763Z" fill="#E2E2E2"/>
<path d="M124.21 10.144H109.897C108.859 10.144 107.864 10.5454 107.13 11.2598C106.396 11.9741 105.984 12.9431 105.984 13.9533V26.1907C105.984 27.201 106.396 28.1699 107.13 28.8843C107.864 29.5987 108.859 30 109.897 30H120.299C121.336 29.9996 122.331 29.5981 123.065 28.8838C123.799 28.1695 124.211 27.2009 124.212 26.1907L124.21 10.144ZM122.049 20.2223C122.038 20.2296 122.026 20.2354 122.013 20.2396C121.933 20.2543 121.852 20.2596 121.77 20.2552C120.608 20.2709 119.443 20.2803 118.279 20.3069C117.915 20.3126 117.557 20.3848 117.221 20.5198C116.704 20.7438 116.268 21.1143 115.971 21.5829C115.588 22.1481 115.363 22.8004 115.316 23.4758C115.307 23.5995 115.299 23.7216 115.292 23.8453C115.251 24.5624 115.244 25.2967 115.241 25.9778C115.241 26.6322 115.241 27.2867 115.241 27.9411C115.245 28.0311 115.236 28.1211 115.215 28.2089C115.205 28.2338 115.19 28.2563 115.17 28.2747C115.151 28.2931 115.127 28.307 115.101 28.3153C115.027 28.3341 114.987 28.2715 114.979 28.2073C114.963 28.111 114.956 28.0136 114.956 27.9161C114.956 27.0675 114.984 26.2189 114.972 25.3687C114.972 24.7331 114.934 24.0958 114.879 23.4617C114.829 22.7979 114.608 22.157 114.236 21.5986C113.742 20.8611 113.068 20.393 112.145 20.3304C111.589 20.2917 111.031 20.2672 110.472 20.2568C109.774 20.2442 109.077 20.2568 108.382 20.2568C108.294 20.2581 108.206 20.2448 108.123 20.2176C108.03 20.1832 108.03 20.0908 108.123 20.0485C108.184 20.0235 108.25 20.0107 108.316 20.011C109.154 20.011 109.993 20.011 110.833 20.0016C111.338 19.9922 111.844 19.964 112.346 19.9076C113.173 19.8168 113.766 19.3549 114.216 18.7036C114.599 18.1346 114.83 17.482 114.889 16.8044C114.977 15.8007 115.007 14.7929 114.979 13.7858L114.969 12.9216C114.969 12.7274 114.969 12.5333 114.969 12.3391V12.3282C114.969 12.2342 114.977 12.1404 114.995 12.0479V12.0479C114.997 12.036 115.001 12.0244 115.006 12.0135V12.0056C115.011 11.9958 115.018 11.9868 115.025 11.979V11.979C115.034 11.9705 115.045 11.9636 115.056 11.9587H115.066C115.081 11.9568 115.096 11.9568 115.111 11.9587H115.141H115.159H115.167L115.18 11.9681L115.191 11.9806C115.196 11.9868 115.2 11.9937 115.202 12.0009V12.0009C115.202 12.0077 115.202 12.0145 115.202 12.0213C115.201 12.0238 115.201 12.0266 115.202 12.0291C115.202 12.0291 115.202 12.0291 115.202 12.0401C115.202 12.0437 115.202 12.0474 115.202 12.051C115.216 12.1449 115.222 12.2397 115.22 12.3344V12.3736C115.22 12.4456 115.22 12.5192 115.22 12.5928C115.22 12.7493 115.22 12.9059 115.22 13.0625C115.22 13.2911 115.22 13.5181 115.22 13.7451C115.22 13.8829 115.22 14.0207 115.22 14.16C115.22 14.2571 115.22 14.3542 115.22 14.4497C115.22 14.6845 115.22 14.9194 115.22 15.1527C115.207 15.8183 115.255 16.4837 115.363 17.1411C115.538 18.0413 115.926 18.8273 116.679 19.4113C117.031 19.6853 117.46 19.849 117.909 19.881C118.496 19.9295 119.088 19.9593 119.678 19.9718C120.387 19.9859 121.098 19.9718 121.807 19.9718C121.877 19.9672 121.947 19.973 122.015 19.989C122.04 19.9987 122.062 20.0143 122.079 20.0344C122.098 20.0554 122.118 20.0753 122.139 20.0939C122.133 20.0988 122.127 20.104 122.123 20.1096C122.102 20.1493 122.077 20.1871 122.049 20.2223V20.2223Z" fill="#E2E2E2"/>
<path d="M55.3149 0.0032959H44.9128C43.8751 0.0032959 42.8798 0.404633 42.146 1.11902C41.4122 1.8334 41 2.8023 41 3.81259V29.7825H46.201C46.7154 29.7834 47.2249 29.6854 47.7004 29.4944C48.1759 29.3033 48.608 29.0228 48.972 28.669C49.336 28.3152 49.6248 27.895 49.8218 27.4324C50.0189 26.9699 50.1203 26.474 50.1203 25.9732V19.8546H55.3149C56.3526 19.8546 57.3479 19.4532 58.0817 18.7388C58.8155 18.0245 59.2277 17.0555 59.2277 16.0453V3.80946C59.2269 2.79972 58.8143 1.83161 58.0805 1.11791C57.3468 0.404201 56.3521 0.00329556 55.3149 0.0032959ZM57.219 9.92971L57.1885 9.96102C57.1772 9.97042 57.1676 9.98294 57.1563 9.99233C57.1378 10.0131 57.1139 10.0288 57.0872 10.0377C57.0078 10.0532 56.9267 10.0585 56.8459 10.0534C55.6816 10.0706 54.5172 10.0784 53.3545 10.1066C52.9911 10.111 52.632 10.1828 52.2962 10.318C51.7788 10.5424 51.3428 10.9134 51.045 11.3827C50.663 11.9482 50.4375 12.6002 50.3905 13.2756C50.3808 13.3977 50.3744 13.5214 50.3664 13.6435C50.3245 14.3606 50.3181 15.0949 50.3149 15.776C50.3149 16.4304 50.3149 17.0864 50.3149 17.7409C50.3158 17.8312 50.3045 17.9212 50.2811 18.0086C50.2718 18.0335 50.2569 18.056 50.2374 18.0744C50.2179 18.0929 50.1943 18.1068 50.1685 18.1151C50.0946 18.1323 50.0544 18.0697 50.0447 18.0055C50.0308 17.9095 50.0232 17.8128 50.0222 17.7158C50.0222 16.8657 50.0495 16.0171 50.0383 15.1685C50.0297 14.5318 49.9991 13.8961 49.9466 13.2615C49.8958 12.5973 49.6746 11.9562 49.3033 11.3968C48.8096 10.6593 48.1357 10.1912 47.2126 10.1286C46.6562 10.091 46.0981 10.0644 45.5417 10.055C44.8437 10.044 44.1441 10.055 43.4509 10.055C43.3629 10.057 43.2753 10.0438 43.192 10.0158C43.0971 9.98138 43.0987 9.889 43.192 9.84829C43.2524 9.82267 43.3175 9.80934 43.3834 9.80915C44.2229 9.80915 45.0624 9.80915 45.9003 9.80132C46.4069 9.79193 46.9135 9.76375 47.4152 9.70738C48.2403 9.61501 48.8337 9.1547 49.2856 8.50338C49.6684 7.93274 49.9 7.2786 49.9595 6.59951C50.0484 5.59526 50.078 4.58686 50.0479 3.57931L50.0383 2.71506C50.0383 2.52091 50.0383 2.32677 50.0383 2.13262V2.12166C50.0374 2.02772 50.0455 1.93389 50.0624 1.8414V1.8414C50.0649 1.82958 50.0687 1.81804 50.0737 1.80696V1.80696C50.0782 1.79645 50.0847 1.78689 50.093 1.77878V1.77878C50.1021 1.77107 50.1124 1.76474 50.1235 1.75999H50.1332C50.1476 1.75472 50.1628 1.75206 50.1782 1.75216H50.2104H50.2184H50.2345L50.2473 1.76156L50.257 1.77408C50.2612 1.78095 50.2644 1.78832 50.2666 1.796V1.796C50.2676 1.80276 50.2676 1.8096 50.2666 1.81635C50.2676 1.81887 50.2676 1.82166 50.2666 1.82418V1.83358C50.2674 1.83772 50.2674 1.84196 50.2666 1.8461C50.2812 1.93987 50.2876 2.03467 50.2859 2.12949V2.19525C50.2859 2.34399 50.2859 2.49273 50.2859 2.64303C50.2859 2.72601 50.2859 2.809 50.2859 2.89198C50.2859 3.119 50.2859 3.34602 50.2859 3.57305C50.2859 3.71239 50.2859 3.85017 50.2859 3.98795C50.2859 4.08503 50.2859 4.1821 50.2859 4.27917C50.2859 4.51245 50.2859 4.74887 50.2859 4.9806C50.2738 5.64678 50.3222 6.3127 50.4307 6.97057C50.606 7.87084 50.992 8.65524 51.7446 9.23924C52.0972 9.51209 52.5258 9.67571 52.9749 9.70895C53.5635 9.75748 54.1537 9.78567 54.744 9.79819C55.4532 9.81385 56.1624 9.79819 56.8717 9.79819C56.9419 9.79327 57.0126 9.79961 57.0807 9.81698C57.0929 9.82084 57.1043 9.82666 57.1145 9.8342L57.1451 9.86082L57.203 9.92188L57.219 9.92971Z" fill="#E2E2E2"/>
<path d="M105.693 9.95926H96.6079V3.3834C96.607 2.52813 96.2575 1.70816 95.636 1.10369C95.0144 0.499209 94.1719 0.159668 93.2933 0.159668H87.494V13.9079C87.4746 14.0711 87.465 14.2353 87.4651 14.3995V15.5143C87.465 15.6786 87.4746 15.8427 87.494 16.0059V23.8343C87.4746 23.998 87.465 24.1627 87.4651 24.3275V25.4407C87.465 25.6055 87.4746 25.7702 87.494 25.9339V26.651C87.4943 27.0745 87.5802 27.4939 87.7468 27.8851C87.9135 28.2764 88.1577 28.6318 88.4655 28.9312C88.7733 29.2305 89.1386 29.4679 89.5407 29.6298C89.9427 29.7917 90.3735 29.8749 90.8086 29.8747H105.694V23.4883C105.695 22.7624 105.47 22.0533 105.049 21.454C104.629 20.8547 104.032 20.3931 103.337 20.1299V20.1299C102.147 20.1471 100.958 20.155 99.7697 20.1832C99.4059 20.1885 99.0465 20.2602 98.7099 20.3945C98.1929 20.6191 97.7574 20.9901 97.4603 21.4592C97.0776 22.0244 96.8521 22.6766 96.8057 23.3521C96.7961 23.4742 96.788 23.5979 96.7816 23.7216C96.7398 24.4387 96.7333 25.173 96.7301 25.854C96.7301 26.5085 96.7301 27.163 96.7301 27.8174C96.7338 27.9074 96.7251 27.9974 96.7044 28.0851C96.6949 28.1102 96.6797 28.1328 96.6599 28.1512C96.6402 28.1697 96.6163 28.1835 96.5902 28.1916V28.1916V11.8256C96.6003 11.8239 96.6107 11.8239 96.6208 11.8256H96.6304H96.6465H96.6545L96.6674 11.8334L96.6771 11.8459L96.6867 11.8663C96.6867 11.8663 96.6867 11.8788 96.6867 11.8866C96.6867 11.8944 96.6867 11.8866 96.6867 11.8866C96.6867 11.8866 96.6867 11.8944 96.6867 11.8976C96.6867 11.8976 96.6867 11.8976 96.6867 11.9085C96.6875 11.9153 96.6875 11.9221 96.6867 11.9289V11.9367C96.6977 12.0214 96.7031 12.1066 96.7028 12.1919C96.7019 12.2039 96.7019 12.2159 96.7028 12.2279C96.7028 12.3845 96.7028 12.5301 96.7028 12.682C96.7028 12.7618 96.7028 12.8385 96.7028 12.9231C96.7028 13.1501 96.7028 13.3787 96.7028 13.6057C96.7028 13.7513 96.7028 13.8969 96.7028 14.0426C96.7028 14.1318 96.7028 14.221 96.7028 14.3103C96.7028 14.5436 96.7028 14.78 96.7028 15.0117C96.6901 15.6778 96.738 16.3438 96.8459 17.0017C97.0212 17.902 97.4088 18.6879 98.1615 19.2719C98.5143 19.5444 98.9427 19.7079 99.3918 19.7416C99.9804 19.7896 100.57 19.8199 101.161 19.8324C101.87 19.8465 102.581 19.8324 103.29 19.8324C103.36 19.8277 103.43 19.834 103.498 19.8512C103.521 19.8607 103.541 19.8746 103.559 19.8919H105.686L105.693 9.95926Z" fill="#E2E2E2"/>
<path d="M129.701 0.280273H132.449C133.285 0.280273 134.113 0.440563 134.885 0.751989C135.657 1.06342 136.359 1.51988 136.95 2.09532C137.541 2.67076 138.01 3.35391 138.33 4.10576C138.65 4.85761 138.814 5.66344 138.814 6.47724V29.9969H136.066C135.23 29.9969 134.402 29.8365 133.63 29.525C132.857 29.2135 132.155 28.7569 131.564 28.1813C130.973 27.6057 130.504 26.9223 130.185 26.1703C129.865 25.4183 129.7 24.6123 129.701 23.7984V0.280273Z" fill="#E2E2E2"/>
<path d="M153.494 9.95935H143.092C142.055 9.95935 141.059 10.3607 140.326 11.0751C139.592 11.7895 139.18 12.7584 139.18 13.7687V26.006C139.18 27.0163 139.592 27.9852 140.326 28.6996C141.059 29.414 142.055 29.8153 143.092 29.8153H157.406V13.7687C157.406 12.7586 156.994 11.79 156.26 11.0756C155.527 10.3613 154.532 9.95977 153.494 9.95935V9.95935ZM155.246 20.0439C155.235 20.0518 155.223 20.0576 155.21 20.0611C155.13 20.0759 155.049 20.0811 154.968 20.0768C153.805 20.0924 152.64 20.1018 151.476 20.1284C151.113 20.1341 150.754 20.2064 150.418 20.3414C149.901 20.5653 149.465 20.9358 149.168 21.4045C148.785 21.9702 148.56 22.6229 148.514 23.2989C148.504 23.4211 148.496 23.5432 148.488 23.6669C148.448 24.384 148.441 25.1183 148.438 25.7993C148.438 26.4538 148.438 27.1088 148.438 27.7643C148.442 27.8537 148.433 27.9432 148.412 28.0304C148.403 28.0554 148.387 28.0778 148.368 28.0963C148.348 28.1147 148.324 28.1286 148.298 28.1369C148.224 28.1557 148.184 28.0931 148.176 28.0289C148.16 27.9325 148.153 27.8352 148.153 27.7377C148.153 26.8891 148.181 26.0405 148.17 25.1903C148.17 24.5546 148.131 23.9174 148.076 23.2833C148.026 22.6195 147.805 21.9787 147.433 21.4201C146.939 20.6827 146.265 20.2146 145.342 20.1519C144.786 20.1133 144.228 20.0888 143.67 20.0783C142.972 20.0658 142.274 20.0783 141.579 20.0783C141.491 20.0804 141.403 20.0671 141.32 20.0392C141.227 20.0048 141.227 19.9124 141.32 19.8701C141.381 19.8451 141.447 19.8323 141.513 19.8325C142.351 19.8325 143.19 19.8325 144.03 19.8231C144.535 19.8137 145.042 19.7856 145.543 19.7308C146.37 19.6384 146.963 19.1765 147.414 18.5252C147.796 17.9562 148.027 17.3036 148.086 16.626C148.175 15.6223 148.205 14.6144 148.176 13.6074L148.166 12.7431C148.166 12.549 148.166 12.3548 148.166 12.1607V12.1497C148.166 12.0557 148.175 11.9619 148.192 11.8695V11.8695C148.194 11.8575 148.198 11.8459 148.203 11.835V11.8272C148.208 11.8174 148.215 11.8084 148.223 11.8006V11.8006C148.231 11.7921 148.242 11.7852 148.253 11.7802H148.263C148.278 11.7784 148.293 11.7784 148.308 11.7802H148.338H148.346H148.364H148.372L148.385 11.7896L148.396 11.8022C148.401 11.8084 148.405 11.8153 148.408 11.8225V11.8225C148.407 11.8293 148.407 11.8361 148.408 11.8429C148.407 11.846 148.407 11.8492 148.408 11.8523C148.408 11.8523 148.408 11.8523 148.408 11.8617C148.407 11.8653 148.407 11.869 148.408 11.8726C148.421 11.9664 148.427 12.0612 148.425 12.156V12.2155C148.425 12.2875 148.425 12.3611 148.425 12.4347C148.425 12.5913 148.425 12.7478 148.425 12.9044C148.425 13.133 148.425 13.36 148.425 13.587C148.425 13.7248 148.425 13.8642 148.425 14.0019C148.425 14.099 148.425 14.1961 148.425 14.2916C148.425 14.5264 148.425 14.7613 148.425 14.9946C148.413 15.6602 148.461 16.3256 148.568 16.983C148.744 17.8848 149.131 18.6692 149.884 19.2532C150.236 19.5272 150.665 19.6909 151.114 19.7229C151.701 19.7715 152.293 19.8012 152.883 19.8137C153.592 19.8278 154.303 19.8137 155.013 19.8137C155.082 19.8091 155.152 19.8149 155.22 19.831C155.245 19.8406 155.267 19.8562 155.284 19.8764C155.304 19.8967 155.323 19.9186 155.344 19.9374L155.328 19.9515C155.303 19.9845 155.276 20.0154 155.246 20.0439V20.0439Z" fill="#E2E2E2"/>
<path d="M175.998 26.0091V13.7717C175.998 12.7614 175.586 11.7925 174.852 11.0781C174.119 10.3637 173.123 9.9624 172.086 9.9624H166.878V3.84372C166.878 2.83343 166.466 1.86452 165.732 1.15014C164.998 0.435756 164.003 0.0344238 162.965 0.0344238H157.771V26.0091C157.771 27.0191 158.184 27.9876 158.917 28.7016C159.651 29.4157 160.646 29.8168 161.684 29.8168H172.086C172.599 29.817 173.108 29.7187 173.583 29.5274C174.058 29.3361 174.489 29.0557 174.852 28.7021C175.216 28.3485 175.504 27.9287 175.701 27.4666C175.897 27.0045 175.998 26.5092 175.998 26.0091V26.0091ZM173.991 19.8872C173.97 19.906 173.953 19.928 173.932 19.9483C173.922 19.958 173.912 19.9669 173.901 19.9749C173.891 19.983 173.88 19.9894 173.868 19.9937C173.8 20.0097 173.73 20.0155 173.66 20.0109C172.951 20.0109 172.24 20 171.531 20.0109C170.941 20.0235 170.351 20.0532 169.762 20.1002C169.313 20.1334 168.884 20.297 168.531 20.5699C167.779 21.1539 167.391 21.9383 167.216 22.8386C167.108 23.4965 167.06 24.1624 167.073 24.8285C167.073 25.0634 167.073 25.2982 167.073 25.53C167.073 25.627 167.073 25.7241 167.073 25.8212C167.073 25.959 167.073 26.0983 167.073 26.2361C167.073 26.4631 167.073 26.6901 167.073 26.9172C167.073 27.0017 167.073 27.0847 167.073 27.1677C167.073 27.3164 167.073 27.4651 167.073 27.6139V27.653C167.075 27.7478 167.069 27.8426 167.055 27.9364C167.055 27.9364 167.055 27.9364 167.055 27.9474C167.055 27.9474 167.055 27.9474 167.055 27.9568C167.054 27.9599 167.054 27.9631 167.055 27.9662C167.055 27.9662 167.055 27.9787 167.055 27.9865C167.052 27.9936 167.048 28.0004 167.044 28.0069V28.0069L167.034 28.0194L167.021 28.0288H167.013H166.996H166.965C166.95 28.0306 166.935 28.0306 166.92 28.0288H166.91C166.899 28.0244 166.889 28.018 166.88 28.01V28.01C166.872 28.0018 166.866 27.9929 166.86 27.9834C166.86 27.9834 166.86 27.9834 166.86 27.9755C166.856 27.9643 166.852 27.9528 166.849 27.9411V27.9411C166.831 27.8487 166.823 27.7548 166.825 27.6609V27.6499C166.825 27.4558 166.825 27.2616 166.825 27.0675L166.835 26.2032C166.863 25.1961 166.833 24.1883 166.745 23.1846C166.686 22.5065 166.455 21.8534 166.072 21.2838C165.622 20.6341 165.029 20.1722 164.202 20.0798C163.7 20.025 163.194 19.9968 162.689 19.9875C161.849 19.9718 161.011 19.9875 160.172 19.9781C160.106 19.9783 160.04 19.9655 159.979 19.9405C159.887 19.8982 159.887 19.8058 159.979 19.7714C160.062 19.7434 160.15 19.7302 160.238 19.7322C160.937 19.7322 161.635 19.7432 162.328 19.7322C162.886 19.7229 163.445 19.6962 164.001 19.6587C164.924 19.596 165.598 19.1279 166.092 18.3905C166.464 17.8319 166.685 17.1911 166.735 16.5273C166.79 15.8927 166.821 15.2565 166.828 14.6187C166.84 13.7701 166.817 12.9215 166.812 12.0714C166.812 11.9744 166.819 11.8775 166.835 11.7817C166.843 11.7175 166.883 11.6549 166.957 11.6721C166.983 11.6807 167.006 11.6947 167.026 11.7131C167.046 11.7315 167.061 11.7538 167.071 11.7786C167.092 11.8663 167.1 11.9564 167.097 12.0463C167.097 12.7018 167.097 13.3568 167.097 14.0113C167.097 14.6923 167.106 15.4204 167.148 16.1437C167.148 16.2658 167.163 16.3895 167.172 16.5116C167.219 17.1871 167.444 17.8393 167.827 18.4045C168.124 18.874 168.559 19.2452 169.077 19.4692C169.413 19.6043 169.773 19.676 170.136 19.6806C171.299 19.7088 172.464 19.7182 173.628 19.7338C173.709 19.7295 173.79 19.7348 173.869 19.7495C173.896 19.7588 173.919 19.7744 173.938 19.7949L173.969 19.8278L174.001 19.8575L173.991 19.8872Z" fill="#E2E2E2"/>
</g>
<g clip-path="url(#clip1_161_13)">
<path d="M29.6157 15.4202C18.5699 16.4968 16.4927 18.5699 15.4201 29.6158C15.4099 29.7206 15.3611 29.818 15.283 29.8888C15.205 29.9596 15.1033 29.9988 14.9979 29.9988C14.8926 29.9988 14.7909 29.9596 14.7129 29.8888C14.6348 29.818 14.5859 29.7206 14.5757 29.6158C13.5031 18.5699 11.426 16.4968 0.380136 15.4202C0.275246 15.41 0.177903 15.3611 0.10709 15.283C0.0362772 15.205 -0.00292969 15.1033 -0.00292969 14.998C-0.00292969 14.8926 0.0362772 14.791 0.10709 14.7129C0.177903 14.6349 0.275246 14.586 0.380136 14.5757C11.426 13.5032 13.5031 11.4301 14.5757 0.384169C14.5859 0.279279 14.6348 0.18195 14.7129 0.111138C14.7909 0.0403248 14.8926 0.00109863 14.9979 0.00109863C15.1033 0.00109863 15.205 0.0403248 15.283 0.111138C15.3611 0.18195 15.4099 0.279279 15.4201 0.384169C16.4927 11.4301 18.5699 13.5032 29.6157 14.5757C29.7206 14.586 29.8179 14.6349 29.8887 14.7129C29.9596 14.791 29.9988 14.8926 29.9988 14.998C29.9988 15.1033 29.9596 15.205 29.8887 15.283C29.8179 15.3611 29.7206 15.41 29.6157 15.4202V15.4202Z" fill="#E2E2E2"/>
</g>
<defs>
<clipPath id="clip0_161_13">
<rect width="135" height="30" fill="white" transform="translate(41)"/>
</clipPath>
<clipPath id="clip1_161_13">
<rect width="30" height="30" fill="white"/>
</clipPath>
</defs>
</svg>
