<svg width="300" height="47" viewBox="0 0 300 47" fill="none" xmlns="http://www.w3.org/2000/svg">
<g clip-path="url(#clip0_67_5)">
<path d="M56 38.5999C54.7 38.5999 53.1 38.1999 53.1 34.6999V23.4999C53.1 23.4999 53.7 23.4999 54.5 23.4999C55.3 23.4999 56.3 22.9999 57 22.2999C58.7 20.5999 61.7 17.4999 62 17.2999C62.6 16.6999 63 15.9999 62.2 15.9999C61.3 15.9999 53.1 15.9999 53.1 15.9999C53.1 15.9999 53.1 10.0999 53.1 9.09989C53.1 8.09989 52.7 7.49989 51.7 8.59989C48 12.2999 38.4 21.8999 38 22.3999C37.4 22.9999 37.5 23.4999 38.3 23.4999C39.1 23.4999 43.4 23.4999 43.4 23.4999V36.2999C43.4 42.9999 46.7 46.3999 53.2 46.3999C55.3 46.3999 57 46.1999 58.3 45.6999C59.4 45.2999 59.6 44.9999 59.5 44.1999C59.5 42.5999 59.5 39.3999 59.5 38.6999C59.5 37.6999 58.9 37.6999 58.7 37.7999C58.2 37.9999 56.8 38.5999 56 38.5999Z" fill="#F9595F"/>
<path d="M162.4 38.5999C161.1 38.5999 159.5 38.1999 159.5 34.6999V23.4999C159.5 23.4999 160.1 23.4999 160.9 23.4999C161.7 23.4999 162.7 22.9999 163.4 22.2999C165.1 20.5999 168.1 17.4999 168.4 17.2999C169 16.6999 169.4 15.9999 168.6 15.9999C167.7 15.9999 159.5 15.9999 159.5 15.9999C159.5 15.9999 159.5 10.0999 159.5 9.09989C159.5 8.09989 159.1 7.49989 158.1 8.59989C154.4 12.2999 144.9 21.8999 144.4 22.3999C143.8 22.9999 143.9 23.4999 144.7 23.4999C145.5 23.4999 149.8 23.4999 149.8 23.4999V36.2999C149.8 42.9999 153.1 46.3999 159.6 46.3999C161.7 46.3999 163.4 46.1999 164.7 45.6999C165.8 45.2999 166 44.9999 165.9 44.1999C165.9 42.5999 165.9 39.3999 165.9 38.6999C165.9 37.6999 165.3 37.6999 165.1 37.7999C164.6 37.9999 163.2 38.5999 162.4 38.5999Z" fill="#F9595F"/>
<path d="M228.2 31.4999C228.2 26.5999 226.8 22.6999 224.1 19.7999C221.8 17.3999 218.8 15.9999 215.1 15.5999C214.3 15.4999 213.4 15.3999 212.5 15.3999C211.6 15.3999 210.7 15.4999 209.9 15.5999C206.3 15.9999 203.3 17.3999 201 19.7999C198.2 22.5999 196.9 26.5999 196.9 31.4999C196.9 35.7999 198.6 39.9999 200.8 41.9999C202.9 43.9999 204.7 44.6999 206.1 45.3999C207.5 45.9999 210.6 46.3999 212.6 46.3999C214.7 46.3999 216.8 46.2999 219.4 45.2999C222 44.3999 223 43.4999 224.5 41.9999C226.9 39.2999 228.2 35.7999 228.2 31.4999ZM219 30.8999C219 33.1999 218.4 35.0999 217.2 36.3999C216.1 37.5999 214.5 38.2999 212.5 38.2999C210.5 38.2999 208.9 37.5999 207.8 36.3999C206.6 35.0999 206 33.2999 206 30.8999C206 28.4999 206.6 26.5999 207.9 25.2999C209 24.0999 210.6 23.3999 212.5 23.2999C214.4 23.3999 216 24.0999 217.1 25.2999C218.3 26.6999 219 28.5999 219 30.8999Z" fill="#F9595F"/>
<path d="M108.3 19.5001C106.1 17.1001 103.3 15.7001 99.9001 15.3001C99.1001 15.2001 98.3001 15.1001 97.5001 15.1001C96.7001 15.1001 95.8001 15.2001 95.0001 15.3001C91.6001 15.7001 88.8001 17.1001 86.6001 19.5001C84.0001 22.4001 82.7001 26.4001 82.7001 31.3001C82.7001 35.6001 83.9001 39.2001 86.3001 41.9001C87.7001 43.5001 89.4001 44.6001 91.3001 45.3001C91.3001 45.3001 91.3001 45.3001 91.4001 45.3001C91.6001 45.4001 91.7001 45.4001 91.9001 45.5001C93.6001 46.0001 94.4001 46.3001 97.4001 46.3001C103 46.3001 105.4 45.0001 108.4 43.5001C109 43.1001 109.2 43.0001 109.2 42.3001C109.2 40.7001 109.2 37.3001 109.2 36.9001C109.2 36.4001 108.5 36.0001 108 36.3001C106.5 37.4001 103.9 39.0001 99.1001 39.0001C92.9001 39.0001 91.5001 33.0001 91.5001 33.0001C91.5001 33.0001 110.4 33.0001 111.1 33.0001C111.8 33.0001 112 32.4001 112 32.0001C112 31.7001 112 31.5001 112 31.2001C112.2 26.4001 110.9 22.4001 108.3 19.5001ZM91.8001 27.5001C91.8001 27.5001 92.1001 22.0001 97.5001 22.0001C102.8 22.0001 103.2 27.5001 103.2 27.5001H91.8001Z" fill="#F9595F"/>
<path d="M139.8 19.5001C137.6 17.1001 134.8 15.7001 131.4 15.3001C130.6 15.2001 129.8 15.1001 129 15.1001C128.2 15.1001 127.3 15.2001 126.5 15.3001C123.1 15.7001 120.3 17.1001 118.1 19.5001C115.5 22.4001 114.2 26.4001 114.2 31.3001C114.2 35.6001 115.4 39.2001 117.8 41.9001C119.2 43.5001 120.9 44.6001 122.8 45.3001C122.8 45.3001 122.8 45.3001 122.9 45.3001C123.1 45.4001 123.2 45.4001 123.4 45.5001C125.1 46.0001 125.9 46.3001 128.9 46.3001C134.5 46.3001 136.9 45.0001 139.9 43.5001C140.5 43.1001 140.7 43.0001 140.7 42.3001C140.7 40.7001 140.7 37.3001 140.7 36.9001C140.7 36.4001 140 36.0001 139.5 36.3001C138 37.4001 135.4 39.0001 130.6 39.0001C124.4 39.0001 123 33.0001 123 33.0001C123 33.0001 141.9 33.0001 142.6 33.0001C143.3 33.0001 143.5 32.4001 143.5 32.0001C143.5 31.7001 143.5 31.5001 143.5 31.2001C143.7 26.4001 142.4 22.4001 139.8 19.5001ZM123.3 27.5001C123.3 27.5001 123.6 22.0001 129 22.0001C134.3 22.0001 134.7 27.5001 134.7 27.5001H123.3Z" fill="#F9595F"/>
<path d="M296.1 19.5001C293.9 17.1001 291.1 15.7001 287.7 15.3001C286.9 15.2001 286.1 15.1001 285.3 15.1001C284.5 15.1001 283.6 15.2001 282.8 15.3001C279.4 15.7001 276.6 17.1001 274.4 19.5001C271.8 22.4001 270.5 26.4001 270.5 31.3001C270.5 35.6001 271.7 39.2001 274.1 41.9001C275.5 43.5001 277.2 44.6001 279.1 45.3001C279.1 45.3001 279.1 45.3001 279.2 45.3001C279.4 45.4001 279.5 45.4001 279.7 45.5001C281.4 46.0001 282.2 46.3001 285.2 46.3001C290.8 46.3001 293.2 45.0001 296.2 43.5001C296.8 43.1001 297 43.0001 297 42.3001C297 40.7001 297 37.3001 297 36.9001C297 36.4001 296.3 36.0001 295.8 36.3001C294.3 37.4001 291.7 39.0001 286.9 39.0001C280.7 39.0001 279.3 33.0001 279.3 33.0001C279.3 33.0001 298.2 33.0001 298.9 33.0001C299.6 33.0001 299.8 32.4001 299.8 32.0001C299.8 31.7001 299.8 31.5001 299.8 31.2001C300 26.4001 298.7 22.4001 296.1 19.5001ZM279.6 27.5001C279.6 27.5001 279.9 22.0001 285.3 22.0001C290.6 22.0001 291 27.5001 291 27.5001H279.6Z" fill="#F9595F"/>
<path d="M270.5 41.4999C269.4 40.2999 268.6 38.8999 268 37.2999C267.7 36.6999 267 36.7999 266.6 36.9999C264.5 38.2999 262.8 38.4999 261.3 38.5999C259.3 38.5999 257.7 37.8999 256.6 36.5999C255.4 35.2999 254.8 33.3999 254.8 31.0999C254.8 28.6999 255.4 26.7999 256.7 25.3999C257.8 24.0999 259.7 23.4999 261.6 23.3999C263.5 23.1999 265.3 23.8999 266.7 24.6999C267.3 25.0999 267.9 24.6999 268.1 24.2999C268.7 22.5999 269.6 20.9999 270.7 19.6999C271.2 19.0999 270.8 18.5999 270.6 18.3999C268.9 16.9999 267 15.8999 264 15.5999C263.2 15.4999 262.3 15.3999 261.4 15.3999C261.3 15.3999 259 15.4999 258.1 15.5999C254.5 15.9999 251.4 17.3999 249.1 19.7999C246.3 22.6999 244.9 26.5999 244.9 31.4999C244.9 35.7999 246.6 39.9999 248.8 41.9999C249.9 43.0999 251 43.7999 251.9 44.2999C252.9 44.9999 253.8 45.2999 254.8 45.6999C255.8 45.9999 258.1 46.3999 260.5 46.3999C260.6 46.3999 260.6 46.3999 260.7 46.3999C260.9 46.3999 261.1 46.3999 261.3 46.3999C261.5 46.3999 261.6 46.3999 261.8 46.3999C263.9 46.2999 266.1 45.5999 268 44.5999C269.1 44.0999 269.9 43.4999 270.5 43.0999C271.3 42.3999 270.8 41.6999 270.5 41.4999Z" fill="#F9595F"/>
<path d="M24.5 19.9C19.9 19.5 18.9 18.1 18.8 16.9C18.7 15.7 19.2 14.4 21.3 14.4C23 14.4 32.3 14.4 35.8 14.4C37.3 14.4 38.5 13 38.3 13.2C38.1 13.4 46.8 4.70005 46.8 4.70005C46.8 4.70005 48.2 3.40005 46.9 3.30005C41.9 3.30005 24 3.30005 20.4 3.30005C16.3 3.30005 8.00003 7.30005 8.00003 15.8C8.00003 24.3 13.2 28.7 18.3 29.9C22.9 31 25.1 29.8001 25.7 32.9001C25.9 33.8001 25.1 35.6 23.1 35.6C22.3 35.6 12.1 35.6 11.3 35.6C10.5 35.6 9.40003 36.1001 8.60003 36.9001C8.00003 37.5 2.90003 42.7001 0.500028 45C-0.0999721 45.6 -0.499972 46.3 0.700028 46.3C6.10003 46.3 20.4 46.3 24.4 46.3C29.6 46.3 37.5 41.6 37.4 32.6C37.5 24.8 32 20.5 24.5 19.9Z" fill="#F9595F"/>
<path d="M83.7 17.2999C82.4 16.7999 80.7 16.5999 79.3 16.4999C76.7 16.4999 73.4 17.9999 72 19.8999C72 19.8999 71.7 18.6999 70.8 17.0999C70.4 16.3999 70.1 15.8999 69.8 15.5999C69.4 15.0999 68.7 14.9999 67.9 15.7999C67.3 16.3999 63.8 19.8999 62.3 21.3999C61.9 21.7999 61.8 22.2999 62 22.7999C62.3 23.4999 62.4 24.3999 62.4 25.4999C62.4 29.7999 62.5 41.1999 62.5 44.9999C62.5 45.7999 63 46.2999 63.8 46.2999C64.4 46.2999 68.4 46.2999 70.6 46.2999C71.4 46.2999 71.9 45.6999 71.9 44.9999C71.9 44.1999 71.9 32.0999 71.9 32.0999C71.9 29.7999 72.4 27.8999 73.4 26.5999C74.4 25.2999 75.7 24.6999 77.5 24.6999C78.3 24.6999 79.2 24.7999 80.2 24.9999C81.1 25.2999 81.4 24.9999 81.5 24.1999C81.7 23.3999 82 22.2999 82.5 21.1999C83 20.2999 83.5 19.4999 84 18.9999C84.7 18.4999 84.5 17.4999 83.7 17.2999Z" fill="#F9595F"/>
<path d="M202.4 1.9C201.4 2.9 182.1 22.1 182.1 22.1C182.1 22.1 182.1 8 182.1 7.2C182.1 6.3 181.8 5.5 180.8 6.6C180.1 7.3 174.6 12.9 172.3 15.2C171.7 15.8 171.3 16.9 171.3 18.1C171.3 19.1 171.3 38.1 171.3 44.5C171.3 45.8 171.8 46.1 172.5 45.4C173.1 44.8 209.1 8.9 216.3 1.7C217.1 0.9 217 0.5 216.2 0.5C215.6 0.5 208.5 0.5 205.4 0.5C204.4 0.5 203.3 0.9 202.4 1.9Z" fill="#F9595F"/>
<path d="M233.8 46.5C234.5 46.5 237.3 46.5 239.1 46.5C240.2 46.5 240.6 46 240.6 45.1C240.6 39.4 240.6 18.5 240.6 18C240.6 17.4 240.4 15.9 239.3 17C238.4 17.9 235 21.3 233.4 23C232.9 23.5 232.5 24.5 232.5 25.9C232.5 27.1 232.5 44.1 232.5 45C232.5 45.9 232.7 46.5 233.8 46.5Z" fill="#F9595F"/>
<path d="M232.4 14.5C232.4 15.1 232.4 17.1 232.4 18.7C232.4 19.7 232.9 20 233.5 19.4C234 18.9 237.7 15.1 239.6 13.3C240.2 12.7 240.6 11.9 240.6 10.7C240.6 9.20003 240.6 7.20003 240.6 6.80003C240.6 6.10003 240.3 5.10003 239.3 6.00003C238.4 6.90003 235 10.3 233.3 12C232.7 12.5 232.4 13.5 232.4 14.5Z" fill="#F9595F"/>
</g>
<defs>
<clipPath id="clip0_67_5">
<rect width="300" height="47" fill="white"/>
</clipPath>
</defs>
</svg>
